<?xml version="1.0" standalone="no"?>
<!DOCTYPE svg PUBLIC "-//W3C//DTD SVG 20010904//EN"
 "http://www.w3.org/TR/2001/REC-SVG-20010904/DTD/svg10.dtd">
<svg version="1.0" xmlns="http://www.w3.org/2000/svg"
 width="233.000000pt" height="233.000000pt" viewBox="0 0 233.000000 233.000000"
 preserveAspectRatio="xMidYMid meet">
<metadata>
Created by potrace 1.14, written by Peter Selinger 2001-2017
</metadata>
<g transform="translate(0.000000,233.000000) scale(0.100000,-0.100000)"
fill="#000000" stroke="none">
<path d="M907 1790 c-54 -16 -112 -75 -135 -135 -27 -70 -27 -90 -2 -159 43
-114 151 -172 272 -147 46 10 65 21 106 61 149 146 50 391 -158 389 -30 0 -68
-5 -83 -9z m164 -100 c110 -79 54 -260 -82 -260 -129 0 -194 154 -102 242 56
53 125 60 184 18z"/>
<path d="M1425 1431 c-54 -25 -85 -60 -96 -112 -12 -53 -4 -95 28 -137 32 -43
72 -62 128 -62 70 0 124 35 151 99 36 87 -5 176 -100 215 -47 20 -61 19 -111
-3z m118 -103 c26 -30 22 -75 -9 -103 -15 -14 -36 -25 -46 -25 -27 0 -78 54
-78 82 0 25 26 62 50 71 24 9 64 -2 83 -25z"/>
<path d="M865 1237 c-101 -34 -195 -115 -245 -213 -23 -46 -25 -58 -25 -204
l0 -155 29 -3 c16 -2 32 2 37 10 5 7 9 64 9 126 0 102 3 118 29 175 15 35 45
80 65 101 122 121 326 122 446 2 40 -40 60 -44 84 -17 16 17 16 22 2 48 -18
34 -69 75 -137 110 -42 22 -65 27 -152 30 -66 2 -116 -2 -142 -10z"/>
<path d="M1420 1043 c-139 -47 -208 -135 -217 -275 -6 -85 3 -108 41 -108 34
0 46 20 46 75 0 75 18 125 59 166 54 54 137 72 207 46 77 -30 118 -94 129
-202 3 -38 9 -73 11 -77 9 -15 62 -9 68 8 10 25 7 121 -5 168 -28 110 -154
207 -268 205 -31 0 -63 -3 -71 -6z"/>
</g>
</svg>
